<svg width="53" height="66" fill="none" xmlns="http://www.w3.org/2000/svg"><g clip-path="url(#a)"><path d="M40.013 26.753c1.4 2.683 2.387 10.782 1.707 15.803-.88 6.567-14.413 16.085-16.96 17.133-2.547 1.035-7.88.562-8.667-4-.8-4.56.72-16.071 2.28-18.933 2.694-4.97 8.254-12.316 10.134-13.082 1.893-.754 10.76 1.635 11.506 3.079Z" fill="#FFC727"/><path d="M20.946 32.566a71.361 71.361 0 0 1 3.347-4.625 30.361 30.361 0 0 0 17.2 4.573c.253 1.776.413 3.718.453 5.596-4.666.218-12.773-.383-21-5.544ZM38.346 48.74c-5.16-.09-13.32-1.201-21.506-6.363v-.012c.44-2.492.986-4.6 1.547-5.622.026-.05.053-.09.08-.14 9.706 6.873 19.96 6.669 23.186 6.4-.386 1.802-1.64 3.782-3.306 5.737ZM27.267 58.232c-3.573-.74-7.56-2.005-11.333-4.165-.107-1.852-.014-4.228.213-6.656 5.68 4.318 12.773 5.66 17.413 6.056-2.253 1.942-4.56 3.641-6.293 4.765Z" fill="#263238"/><path opacity=".1" d="M16.107 55.69c-.787-4.561.72-16.072 2.28-18.947 2.693-4.957 8.24-12.316 10.133-13.082.387-.153 1.067-.179 1.934-.102-2.854 5.072-8.147 16.008-8.894 18.767-.893 3.348-1.293 12.585.654 13.722 1.946 1.15 2.986 2.159 8.56-.333.013-.012.026-.012.026-.012-2.706 2.082-5.093 3.59-6.026 3.973-2.547 1.06-7.867.575-8.667-3.986Z" fill="#000"/><path opacity=".3" d="M38.907 31.096c.707 3.578.973 7.206.52 10.834-.587 2.862-2.733 5.213-4.88 7.155 1.12-2.108 2.453-4.101 3.227-6.312.786-3.794.413-7.831 1.133-11.677Z" fill="#fff"/><path d="M45.026 20.556c-2.48-4.33-7.173-5.596-11.84-4.803-4.68.792-6.68 5.43-5.88 9.007.8 3.577 5.827 8.163 10.747 8.087 4.92-.077 10-7.002 6.974-12.29Z" fill="#263238"/><path opacity=".1" d="M39.613 32.604c-.52.153-1.04.243-1.56.255-4.92.077-9.946-4.51-10.746-8.087-.694-3.079.706-6.962 4.093-8.47-2.707 3.705-2 7.474-.76 9.825.64 1.2 3.213 5.838 8.973 6.477Z" fill="#000"/><path d="M46.44 10.45c-2.146-2.58-4.533-2.708-6.973-2.299-2.44.396-4.507 1.967-4.44 3.845.067 1.879 1.107 4.434 3.867 5.877 2.76 1.444 6.853.499 7.946-.92 1.094-1.418 1.094-4.701-.4-6.502Z" fill="#263238"/><path d="M41.147 0c1.48.396 2 1.801 1.893 3.079.094.818.614 1.61.547 2.453.067 1.29-.573 2.542-1.667 3.334l-.12-.05c-.04-.844.12-1.56.254-2.339.173-1.034.88-2.197.56-3.296-.654-1.022-1.28-1.776-1.56-3.092L41.147 0ZM52.987 5.864c-1.253.6-2.253.588-3.493.716-.387.115-.694.396-.947.69-1 1.29-1.84 2.427-3.173 3.398l-.12-.051c-.027-.882.266-1.712.76-2.415.746-1.124 2.133-1.456 3.306-1.993 1-.869 2.467-1.341 3.707-.473-.027 0-.04.128-.04.128Z" fill="#263238"/><path opacity=".7" d="M40.173 19.202s11.094 12.354 12.374 24.364c1.28 12.009-1.574 20.965-7.4 22.345-5.814 1.38-6.654-14.986-6.72-21.464-.067-6.477 1.746-25.245 1.746-25.245ZM38.96 18.014s-16.973 1.2-26.733 8.815c-9.76 7.615-14.36 15.88-11.28 20.8 3.093 4.918 15.773-6.082 20.6-10.617 4.84-4.523 17.413-18.998 17.413-18.998Z" fill="#EBEBEB"/></g><defs><clipPath id="a"><path fill="#fff" d="M0 0h53v66H0z"/></clipPath></defs></svg>