<svg width="138" height="133" fill="none" xmlns="http://www.w3.org/2000/svg"><g clip-path="url(#a)" fill-rule="evenodd" clip-rule="evenodd"><path d="M69.38 23.578c2.337-1.577 4.544-3.777 6.844-5.57-2.392.201-5.655 2.607-6.844 5.57ZM79.022 20.798c-.644-.183-.215-.273-.706-.618-2.742.57-6.159 2.336-7.735 5.452 2.707-2.124 5.466-3.998 8.441-4.834ZM75.463 25.006c1.01-.427 2.114-.635 3.028-1.208-.137-.102-.058-.241-.264-.328-2.017.507-4.093.7-5.791 2.744 1.141.21 2.046-.787 3.027-1.208ZM31.98 34.635c-.255 2.248.962 4.277 1.602 6.31.282.903.473 1.96.873 2.81 3.624 7.623 15.586 11.41 22.91 13.735-.217 1.006.154 2.41.054 3.073-5.577-2.09-11.077-3.841-16.28-4.13-.345-.441-.946-.8-1.564-1.026-2.089-.77-7.607-.215-8.84.591-.574.365-.918 1.036-1.322 1.525-1.088.638-2.34.487-3.471.917.47 1.91 2.651 1.044 3.747.376 3.128 2.05 6.342.558 9.405.736 3.434 2.06 7.213 2.002 10.718 2.876-3.785.484-8.791 1.591-12.745 3.137-1.972.764-4.59 2.313-4.37 4.477-1.989.645-4.897.832-6.494 3.085-1.1 1.55-2.632 5.987-2.313 7.415.239 1.077 1.359 1.704 1.021 2.583-.315.81-2.242 1.651-2.128 2.754 1.856.726 3.739-1.508 4.19-3.472 2.761-2.171 4.56-7.724 7.536-10.532.508.465.921.437 1.377.58 4.867-2.262 9.924-6.038 14.784-6.739-2.504 2.197-5.548 6.384-7.362 9.535-2.717 4.711-4.64 9.871-3.845 14.386.13.731.56 1.408.65 2.183.437 3.875-.413 9.331 4.79 11.917 2.167 1.073 3.964-.391 5.873-.933 2.195-.63 4.712-.822 6.834-1.906 7.585-3.876 12.371-14.37 14.662-22.135 1.375 5.146 1.435 11.02.28 16.612-.27 1.306-.513 2.15-.197 3.219-1.066 3.689-3.725 7.709-2.36 10.899-.51 1.161-1.667 1.467-1.864 2.605 1.23 1.463 2.962-.797 3.569-2.288 1.18-.051 2.337-.848 2.983-1.871.277-.44.258-1.05.543-1.557.186-.321.622-.621.766-.932 1.001-2.166-.071-4.579-.154-6.331 3.714-6.27.723-12.487.417-17.913 1.309 3.166 3.144 6.222 3.996 9.483.242.397.466.365.895.586.323 2.699.652 5.39 3.501 7.556.287.857.689 2.615 2.13 2.352.975-1.106-.505-2.077-.475-3.18.015-.517.405-1.002.471-1.45.142-1.054 0-2.426-.246-3.509-.394-1.716-1.316-4.067-3.072-5.529-.213-3.104-1.891-6.309-3.662-9.263a27.345 27.345 0 0 0-6.085-7.024c1.041-.239 2.005-.851 3.066-1.028 4.074 3.89 8.908 9.485 15.156 12.648 5.586 2.824 11.122 2.734 15.204-1.525 2.841.116 9.277-3.246 8.198-6.907-6.213-3.892-11.878-4.772-17.816-6.894-5.226-1.86-10.27-3.814-15.583-5.431.248-.507.034-.91.286-1.403 1.644-.01 3.066-.19 4.622-.486 2.205-.408 4.606-.496 6.16-3.304 1.006-1.827 2.697-3.696 3.695-5.876.352-.773.153-1.729.42-2.593.277-.86 1.124-1.368.873-2.298-.848-.604-1.755.726-1.985 1.569-2.537.441-5.758 4.882-5.634 7.63-3.01-.407-5.746.466-8.315 2.214-.293-.61-.747-1.195-.86-1.843 4.698-2.9 3.98-9.193 2.124-12.49 2.275-.589 4.813-1.269 7.47-.688 1.975.434 4.064 2.282 4.997-.072-1.02-1.947-2.421-1.049-3.489-1.007-1.483.056-4.473-.254-6.368-.026-1.197.148-2.905 1.002-3.697.77-1.21-.362-1.858-1.433-2.973-1.794 1.578-4.286 1.29-8.683-2.68-11.489-.712.191-1.399 1.057-1.168 1.781.279.925 1.12.59 1.744.988 3.166 1.992 1.771 5.215 1.066 8.351-3.05.44-7.968-.356-9.996 3.815-.628 1.286-.637 2.631-.519 3.964-.504-.27-1.357.247-1.55-.06.486-3.698.494-7.304-.306-10.734 1.672-1.092 5.208-1.452 6.378-3.639.235-.431.276-1.314.465-1.931.192-.603.683-1.298.28-1.886-.785.048-1.526.795-1.877 1.64-.461-.134-.817.098-1.287.268-1.458.528-6.056 2.763-6.92 4.72-.193.423.04 1.198-.028 1.74-.145 1.315-.534 2.638-.377 4.223.258 2.561.742 4.468 1.571 6.614-.645.163-1.175.808-1.88.68-8.053-6.94-17.608-16.789-27.078-22.972-.686-.45-2.587.48-2.988.91-2.498 2.644-.83 5.041-.13 7.258ZM119.351 76.584l-.335-.22c-1.761 1.848-3.813 4.377-5.286 6.114 2.17-.228 4.564-3.334 5.621-5.894ZM121.106 79.014a96.963 96.963 0 0 1-.334-.22c-1.443 1.435-3.338 3.086-4.479 4.407 1.792-.033 4.109-1.982 4.813-4.187ZM121.794 81.377c-1.257 1.078-2.585 1.773-3.859 2.732 1.218.476 3.661-.733 3.859-2.732Z" fill="#492727"/><path d="M28.75 32.996a.864.864 0 0 1-.446.186c-.447 1.357-.595 3.316-.262 4.778.23 1 .806 2.729 2.238 2.424-1.225-2.31-1.47-4.837-1.53-7.388ZM27.732 40.148c.298-1.896-.696-3.517-.819-5.319l-.226-.148c-.896 2.08.002 3.792 1.044 5.467ZM26.673 42.001c-.633-1.826-1.08-3.697-1.824-5.5-1.55 1.782-.015 4.749 1.824 5.5Z" fill="#492727"/><path d="M71.077 32.665c-1.51 2.011-3.458 1.882-5.16 3.002 1.262-1.396 3.255-3.234 5.16-3.002ZM95.824 49.196c.047 1.716-2.292 4.428-3.507 5.844.64-1.925 1.497-5.057 3.507-5.844ZM64.903 46.481c-1.172-2.681-.945-5.654-.918-8.577.304-.063.588-.26.96-.005.354 2.78.19 5.673-.042 8.582ZM113.795 75.812c-1.355 1.228-2.72 2.51-4.154 3.184-5.854 2.727-14.38 1.563-21.94-4.014-3.122-2.297-5.96-5.246-9.013-7.665-.475-.371-1.096-.754-1.602-1.205-.302-.27-1.098-.732-.862-1.367.472-.61.888.379 1.075.55 3.105 2.632 8.295 6.297 12.204 8.632-.441-1.533-2.528-2.326-3.981-3.41-2.464-1.842-5.863-4.154-7.934-6.157 5.822 3.122 11.56 5.843 17.043 7.345-4.773-2.46-9.612-4.399-15.084-7.651-.61-.364-1.95-.8-2.125-1.393.52-.317 1.304.054 1.777.208 4.655 1.545 9.486 3.168 14.328 4.92 6.509 2.364 12.695 4.291 19.265 7.365.312.145.68.148 1.003.658Z" fill="#fff"/><path d="M80.264 61.5c-1.203-.191-2.466-.744-3.631-.79-.691 2.787-4.937 5.324-1.643 7.376-2.925 1.562-6.46 2.76-10.475-.326-3.396-2.608-6.036-6.024-5.07-9.54.933-.13 2.022.453 3 .531 1.386-1.841 2.769-3.697 4.253-5.031-.438-1.1-2.128-1.933-2.835-2.97 2.786-1.57 6.068-.758 9.522.813.665.244-.392.854.05 1.145.514.312.845-.248 1.257-.457 4.247 1.875 6.598 5.64 5.572 9.248Zm-4.906-7.365c-.837-.693-1.495 1.04-1.134 1.492.614.032 1.152-.918 1.134-1.492Zm1.658 3.8c.532-.428.96-1.593.053-2.033-.723.447-.756 1.884-.053 2.033Zm-9.852-5.656c.539.055 1.137-.785 1.289-1.236-.552-.636-1.603.767-1.289 1.236Zm3.383 2.373c.743.618 1.554-.62 1.469-1.273-.746-.596-1.23.689-1.469 1.273Zm-2.046-1.986c.022.313-.072.658.379.882.384.143.667-.197.921-.676-.132-.6-.92-.878-1.3-.206Zm8.635 6.783c.614.45 1.098.35 1.481-.308-.336-.783-1.43-.316-1.481.308Zm-4.905-2.258c1.678-.79.024-2.316-.74-.33.288.308.48.16.74.33Zm2.222.021c-.794.209-.853 1.557-.053 2.034.767-.478.587-1.517.053-2.034Zm-6.553-.947c.775.46 1.34-.055 1.88-.68-.525-.931-2-.14-1.88.68Zm2.475 4.013c.72.472 1.626-1.35 1.541-1.859l-.334-.22c-.603.191-1.5 1.505-1.207 2.08Zm1.272 2.437c.97.455 2.216-.079 2.583-1.022-1.036-.5-1.8.303-2.583 1.022ZM69.21 58.88c-1.135-.146-2.124 2.147-.614 2.635.94-.58 1.103-1.812.614-2.635Zm-4.262-.557c-.25.565.496 1.998 1.493 1.134.482-1.191-.89-2.473-1.493-1.134Zm5.023 7.441c.839.49 2.11.175 2.029-.906-.85-.545-1.47.017-2.029.906Zm-6.212-3.438c.69-.194.67-1.259 1.136-1.97-.907-.678-2.316 1.472-1.136 1.97Zm3.095 2.83c.49-.11.862-.822 1.251-1.416-.184-1.89-2.638.65-1.25 1.416Zm-5.605-2.885c.573-.856.154-1.513.575-2.337l-.335-.22c-1.245.404-.928 2.274-.24 2.557Zm7.785 6.382c1.102.507 2.09.46 2.886-.5-.772-.864-2.47-.316-2.886.5Zm-3.16-1.27c.729.346 1.708-.291 1.874-1.163-.79-.602-1.975.331-1.875 1.162Z" fill="#7A4141"/><path d="M62.908 51.714c-5.823-3.41-10.452-7.915-16.117-11.676 4.3 4.768 11.175 9.895 17.203 13.667-.544 1.03-1.595-.03-2.182-.319-4.808-2.314-11.044-6.281-16.055-9.088 4.512 4.261 11.466 7.862 16.883 10.743-4.263-.665-8.91-3.078-13.921-5.776-5.808-3.125-10.947-5.92-13.705-10.74-.538-.95-1.047-2.253-1.472-3.356-.438-1.137-1.084-2.469-1.168-3.325-.232-2.328 1.397-4.704 3.937-3.326 1.22.656 2.293 1.993 3.507 2.932 8.218 6.451 14.881 13.963 23.09 20.264ZM40.454 34.127a5.546 5.546 0 0 0-1.416-1.25c-.334.51.852 1.837 1.416 1.25Zm-2.008 4.268c.793.962 1.708 2.41 3.204 2.9-.692-.931-2.048-2.693-3.204-2.9ZM105.362 81.62c-8.693 7.024-22.77-6.507-29.308-14.427 1.712 1.074 3.266 2.57 4.877 3.997 3.028 2.678 6.455 5.822 10.982 8.31 4.677 2.588 9.402 2.456 13.449 2.12ZM72.385 71.806c4.147 3.998 7.6 8.545 9.206 13.208.417 1.206 1.423 2.918.036 3.85-.972-1.2-1.491-2.687-2.102-4.091-1.18-2.687-2.446-5.717-4.068-8.406-.84-1.4-2.063-2.524-2.951-4.015-.127-.19-.398-.105-.121-.546ZM56.66 61.978c-5.363-.92-10.536-.928-16.159-3.094 2.093-1.223 4.974-.255 7.592.348 2.845.657 5.743 1.325 8.566 2.746Z" fill="#fff"/><path d="M70.291 73.304c-4.208-.439-10.062-3.821-13.784-7.445 2.963-1.967 5.504 3.022 8.764 4.633 1.958.972 4.628.51 5.02 2.812Z" fill="#7A4141"/><path d="M70.428 77.71c-5.506.612-13.813-5.359-17.807-10.081.842-.74 1.749-1.174 2.647-1.613 3.113 4.061 10.215 7.783 14.498 8.546 1.366.25.722 2.016.662 3.148Z" fill="#FFA31D"/><path d="M73.847 97.814c-.557-.7-.018-1.65.093-2.33.835-5.288 1.284-11.008-.055-15.987-.11-.071.004-.189.039-.297.108.035.18-.038.297.04.075.085.037.18.154.256 1.4 4.468 2.166 9.466 1.893 14.644-.069 1.162-.246 4.334-2.42 3.674ZM39.156 57.524c-2.585.697-5.692 1.351-8.319.287 2.476-1.187 5.534-2.076 8.319-.287Z" fill="#fff"/><path d="M68.807 82.865c-6.612-.95-15.583-7.2-18.938-12.735.536-.964 1.179-1.416 1.798-2.014 3.503 5.237 12.68 11.3 18.475 10.997-.149 1.194-.61 2.445-1.335 3.752Z" fill="#7A4141"/><path d="m83.107 89.523.226.148c1.425 2.058 2.518 4.532 1.499 7.2-1.75-2.2-2.998-4.511-1.725-7.348Z" fill="#fff"/><path d="M49.175 70.953c3.322 5.585 12.473 12.145 19.2 13.064-.384 1.242-1.186 2.558-1.709 3.83-7.235-2.734-14.525-8.851-19.76-13.908.756-1.024 1.485-2.136 2.269-2.986Z" fill="#FFA31D"/><path d="M46.249 74.942c4.71 5.311 12.943 11.593 19.868 13.98-.673 1.136-1.026 1.766-1.83 2.793-6.645-2.359-15.497-8.172-20.128-13.347.735-1.157 1.214-2.254 2.09-3.426Z" fill="#7A4141"/><path d="M32.606 71.895c-2.806 2.621-3.935 8.54-7.077 8.61.077-3.931 3.15-8.948 7.077-8.61ZM71.97 108.23c-2.4-1.848.94-5.721 1.412-8.485.416-.014.83-.006 1.294.215.434 2.568.354 5.791-2.706 8.27Z" fill="#fff"/><path d="M63.042 92.645c.255.742-1.124 1.296-1.501 2.053-6.296-.719-15.624-5.732-19.744-11.505.162-1.03 1.126-2.228 1.53-3.302 4.92 4.97 13.242 10.39 19.715 12.754Z" fill="#FFA31D"/><path d="M59.844 95.81c-.282 1.142-2.31 1.81-3.305 2.616-1.868-.232-4.694-1.211-7.422-2.796-2.978-1.713-6.843-4.353-7.822-6.562-.672-1.528.082-2.935.042-4.444 3.87 4.641 12.562 10.589 18.507 11.186Z" fill="#7A4141"/><path d="M69.647 48c2.582-.017 6.162-3.327 5.865-6.522 1.963-.495 6.49 1.372 6.764 3.8-2.56 1.298-3.947 4.873-3.465 6.983.109.454.743.965.34 1.178-2.318-2.702-6.59-4.413-9.504-5.44Z" fill="#FFA31D"/><path d="M69.384 46.704c-.254-.525-.092-1.136.208-1.777.293.192.608.459.85.401.59.376 2.838-1.595 2.544-1.201-.978 1.93-2.304 2.184-3.602 2.577ZM90.995 56.564c-.337 1.609-2.271 1.86-3.506 2.174-1.378.352-2.923.32-4.14.48 1.296-1.411 3.638-1.574 5.534-2.113.714-.214 1.44-.885 2.112-.54ZM80.249 50.322c.43.33.587 1.95 1.975 2.095-.225.307-.419.766-.696.824-1.362-.786-1.143-1.886-1.279-2.92ZM35.328 41.456c4.906 5.978 17.206 11.29 24.653 14.724l.225.148c-4.562-1.34-11.533-2.98-16.851-5.94-4.198-2.333-6.803-5.618-8.027-8.932ZM51.009 64.013c-2.363.723-5.11 1.302-7.64 2.645-2.569 1.365-4.845 3.305-7.48 4.352-.497-.445-1.166-.848-1.525-1.322 2.217-2.852 5.906-3.83 8.814-4.435 2.708-.556 5.366-1.073 7.83-1.24Z" fill="#fff"/><path d="M54.362 99.558c-1.759.258-4.497 2.302-6.64 2.343-.813.018-1.495-.62-2.223-.021-2.365-1.335-3.325-3.483-3.259-5.006 1.537 1.414 3.896 3.414 5.913 3.876-1.629-2.276-5.168-3.316-6.259-5.537-.648-1.31.25-2.407-.292-3.695 2.8 2.732 8.724 7.176 12.76 8.04Z" fill="#FFA31D"/></g><defs><clipPath id="a"><path fill="#fff" transform="rotate(33.242 24.375 81.654)" d="M0 0h106v88.93H0z"/></clipPath></defs></svg>