<svg width="109" height="85" fill="none" xmlns="http://www.w3.org/2000/svg"><g clip-path="url(#a)" fill-rule="evenodd" clip-rule="evenodd"><path d="M10.896 21.411c1.936-.2 3.595.167 5.053 0h-.145C11.92 20.243 4.73 17.096 6.3 11.768c.678-2.314 1.903-3.326 3.861-4.004 10.34-3.593 20.278 5.973 22.871 12.168.49 1.179.5 2.592 1.035 3.715 1.87-.923 3.595-2.547 6.388-2.08 2.282-2.147 6.055-3.515 10.84-2.67-.59-1.646-.556-3.614-.445-5.639-1.825 1.257-2.293 3.838-4.897 4.005-4.74.311-3.672-7.73-2.827-11.58-2.46-.644-4.64 2.325-4.752 4.305-.089 1.624.746 5.295-1.636 5.05-1.057-.111-1.346-2.325-.89-3.86.222-.745.745-.99 1.19-1.78 1.726-3.08 2.972-6.039 6.678-4.749-2.793-3.136-7.913.167-8.759 3.415-.4 1.546.156 2.558-.89 3.415-.812.667-2.727.878-3.561.144-.267-1.212.556-3.203 1.48-4.16.423-.433 1.29-.578 1.78-1.034.846-.8 1.147-1.969 1.926-2.67 2.426-2.18 6.088-2.936 8.914-.444C46.12-2.313 56.871-.334 56.036 6.14c2.204-.456 4.207-.712 6.233-.445 2.437.322 3.895 2.147 5.497 2.525.613.144 1.191-.078 1.926 0 2.059.233 4.318.856 6.833 1.034 7.412.534 15.637 1.513 21.68 2.358 3.072.434 6.032 1.535 7.868 2.97 1.392 1.09 3.395 3.437 2.827 6.084-.389 1.824-2.671 2.67-4.897 2.67-4.05 0-7.256-.912-10.695-1.925-6.811-2.013-14-3.77-20.344-5.94.278 2.103.111 4.272-.3 6.085 7.545 2.091 13.176 4.671 16.626 11.423 3.106 6.05 3.016 21.033.446 27.306-.468 1.135-1.881 3.181-3.272 3.415-3.373.578-4.396-2.447-6.834-3.27-.968-.323-1.747.056-2.815-.59 1.368 1.925 3.327 4.15 3.717 7.275.534 4.349-3.183 9.298-5.787 9.799-4.007.767-6.032-3.204-7.724-5.05.89 8.542-3.806 15.56-11.875 12.313-1.937-2.158-2.226-6.83-1.636-10.244-1.425 4.95-5.72 12.869-12.476 9.944-1.725-1.324-2.215-4.772-1.335-7.42-2.738 2.28-7.69 7.842-12.621 6.085-1.302-.467-3.328-2.258-3.862-3.56-1.792-4.36 3.116-7.596 4.608-9.799-2.939 1.48-7.847 4.56-12.031 2.97-.89-.345-1.692-1.279-2.526-1.924-1.781-1.401-2.838-2.525-2.972-5.339-.2-4.36 2.805-8.053 5.197-9.944-6.12 2.47-13.7.445-13.366-6.084.167-3.292 2.215-6.373 4.162-8.309 2.538-2.535 5.977-3.57 9.505-4.604-3.105-.212-6.31.278-9.06 0-2.66-.278-5.675-2.114-6.388-3.86-.768-1.89-.167-4.115.746-5.339 1.57-2.124 6.589-5.016 9.805-5.339Z" fill="#492727"/><path d="M48.458 2.27c2.86 4.203-1.18 8.62-4.308 10.087.212 1.024.446 2.025.746 2.97 1.58-.022 2.248-1.39 3.272-2.369C50.205 11 53.51 9.966 53.811 7.463c.267-2.28-2.571-7.051-5.353-5.194Z" fill="#FFA31D"/><path d="M64.35 25.416c-1.002-4.338-2.471-8.22-3.717-12.324-.257-.334-1.047-.134-1.191-.59.857-3.014 6.054-1.012 6.677.745.011.456-.445.445-.89.445 1.57 2.492 3.728 4.383 5.197 6.974 2.649-7.986-5.086-13.67-12.02-13.058-3.038.267-3.772 2.202-5.497 4.16-1.035 8.831 3.027 13.781 11.44 13.648ZM62.124 9.833c-.846.244-2.315.11-2.671-.59.49-.79 2.793-.6 2.67.59Zm-4.163.89c-.578.366-2.626.344-2.526-.89.868-.278 2.704-.345 2.526.89Zm10.696 4.904c-1.27-.022-1.525-1.501-1.48-2.369 1.324-.667 1.891 1.28 1.48 2.37Zm-9.95-1.19c-.924.39-2.192-.055-2.226-1.034.924-.4 2.182.056 2.226 1.034Zm-3.862 1.78c-.946-.078-1.08-1.657-.745-2.525 1.368-.089 1.324 1.891.745 2.525Zm3.562 2.37c-1.08-.301-1.046-1.725-1.48-2.67 1.157-.423 1.891 1.535 1.48 2.67Zm-1.625 1.79c-1.37.456-1.848-1.079-1.926-2.37 1.414-.567 1.859 1.069 1.926 2.37Zm4.897 1.034c-1.18-.178-1.96-1.479-1.781-2.524 1.146.289 1.658 1.212 1.78 2.524Zm-1.937 1.335c-.935.645-2.114-.39-2.226-1.48.89-.222 2.204.346 2.226 1.48Zm3.128 1.635c-.813.456-1.58-.267-1.48-1.19.823-.478 1.59.245 1.48 1.19Z" fill="#7A4141"/><path d="M30.194 27.94c.012-.934 1.158-1.279 1.191-2.224.045-1.457-2.582-3.804-3.717-4.894-2.248-2.17-5.743-3.46-7.423-5.05 5.253.367 9.037 3.993 11.43 7.864.256.411.411 1.012.89 1.19.69-.667-.212-1.735-.445-2.37-2.048-5.56-8.058-11.478-13.956-12.913-2.237-.545-5.543-.534-7.424.445-1.39.723-2.96 2.547-2.08 4.605 1.702 3.97 7.957 4.672 12.475 6.53 4.23 1.723 6.221 4.704 9.06 6.817ZM17.718 14.582c-1.324-.067-2.437-.334-2.971-1.19 1.024-.69 3.439-.045 2.971 1.19ZM70.293 10.433c1.39 1.424 3.75 1.268 5.642 1.635 5.854 1.135 11.396 3.181 16.783 4.75-7.824-.056-13.89-3.137-20.934-4.45.5 1.157 2.048 1.313 3.116 1.636 3.584 1.056 7.112 2.18 10.84 3.27 4.908 1.434 9.983 3.38 14.846 4.004 2.204.289 5.187.7 6.533-.745.601-4.05-4.173-5.617-7.579-6.53-3.728-1-8.848-1.379-13.666-1.924-5.81-.69-10.796-1.335-15.581-1.646ZM42.525 22.602c2.315-.067 4.608-.323 6.678-.746 1.002-.2 2.46-.333 2.671-1.335-3.54-.912-7.79.012-9.349 2.08ZM52.764 22.301c-1.024 1.001-2.66 1.402-4.307 1.78 1.48.8 2.882 1.668 3.862 2.97 1.547-.19 2.693-.768 4.451-.746-1.435-1.223-3.071-2.258-4.006-4.004ZM35.993 24.08c1.469.98 3.45.045 4.162-1.034-1.747-.511-2.626.879-4.162 1.035ZM28.714 36.405c.456-.957-.189-2.08 0-3.27-3.183-3.304-8.892-4.071-13.956-5.495 3.862-1.001 8.736.111 11.586 1.924 1.012.657 1.58 1.758 2.67 1.924 1.492-2.135-.4-2.925-2.225-4.16-1.09-.733-2.06-1.234-3.272-1.779-2.883-1.301-5.899-1.869-8.614-2.08-4.007-.311-6.121.879-8.47 2.225-1.791 1.023-4.93 2.302-4.162 5.338.4 1.591 3.483 2.981 5.643 3.115 7.2.456 15.48-.3 20.8 2.258ZM12.232 27.94c-1.102.39-3.094.668-4.307.445.6-.823 3.439-1.746 4.307-.445Z" fill="#fff"/><path d="M73.108 23.936c.78 1.313 2.06 3.46 2.671.59-.745-.345-1.691-.479-2.67-.59Z" fill="#7A4141"/><path d="M60.187 47.083c-.289 2.29-2.314 4.193-4.006 5.783-1.447 1.357-2.604 2.97-4.307 3.415-.657.178-1.413.022-2.081.145-.646.122-3.662.923-3.718-.59-.033-.979.88-.912 2.082-.89 2.726-3.514 4.963-7.508 8.614-10.088-1.147-1.969.7-3.581.745-5.339.045-2.28-2.136-4.772-2.826-6.673-4.608 1.067-10.15-.023-13.511-1.925-.145 1.046-1.859 1.502-2.226.445-.334-.956.757-1.39.745-2.08-.39-1.557-2.481.512-2.971-.59-.09-1.846 1.558-1.412 3.116-1.479.89-.033 1.625-.4 2.526-.3 2.137.245 3.629 1.58 4.897 2.37.88-.902 2.06-1.514 3.562-1.78-1.837-2.47-5.988-2.625-9.65-3.27-1.747 3.57-6.7.656-9.059 3.27-1.057 1.167-1.424 5.305-1.035 7.719.167 1.012.657 2.658 1.035 4.16 1.503 5.861 4.92 10.055 9.36 14.103 2.96 2.703 6.7 5.773 10.695 6.229 1.625.19 3.584.044 4.753-.59.723-.4 2.27-1.89 2.826-2.825 1.325-2.28 1.247-5.817.434-9.22ZM34.056 29.42c3.483-.823 3.472 3.259 1.78 4.449-2.993.756-3.572-3.448-1.78-4.45Zm8.915 7.43c-.813-2.625 3.016-4.171 3.416-1.19.078.611-.2 1.446-.445 2.08-1.625.456-2.716-.067-2.971-.89Zm-1.492-.445c0 1.09-.167 2.013-1.335 1.924-1.425-.857.078-3.392 1.335-1.924Zm8.024 4.004c-2.225.367-2.77-1.135-2.37-2.97 2.036-2.614 4.785 1.38 2.37 2.97Zm-11.73-3.56c.378.78-.1 1.569-.89 1.636-.557-.1-.813-1.09-.445-1.635.3-.3.979-.123 1.335 0Zm14.702 3.705c-.479-.512-.679-2.036-.145-2.67 3.461-2.102 3.339 4.505.145 2.67Zm-10.55 3.86c-.713-.79-.557-2.782.3-3.271 3.06-.523 2.67 4.538-.3 3.27Zm11.73-.446c.244 1.513-2.27 2.158-1.926-.3.668-.812 1.78-.645 1.926.3Zm-3.261 4.894c-.2.145-.445.245-.59.445-.824-.067-1.313-.467-1.191-1.48.579-.833 2.081-.31 1.78 1.035Zm-9.66 1.19c-1.37.056-2.004-2.903 0-2.524 1.535.289 1.48 2.469 0 2.524Zm4.462 4.45c-2.849-4.327 4.73-4.483 2.226-.3-.478.388-1.48.644-2.226.3Zm13.511 1.79c-.122 1.891-3.116.879-2.226-1.19 1.291-.5 2.282.312 2.226 1.19Z" fill="#FFC440"/><path d="M75.78 27.35c.41.924 1.079 1.591 1.48 2.526 1.012-.968 2.17-1.78 2.37-3.56-1.024-.21-1.614-.867-2.671-1.034-.212.856-.712 1.435-1.18 2.069Z" fill="#FFA31D"/><path d="M80.977 27.195c-.701 1.524-1.58 2.87-2.67 4.004.69.89 1.368 1.802 1.924 2.826 1.336-1.235 2.349-2.803 3.117-4.605-.434-1.09-1.647-1.413-2.37-2.225Z" fill="#7A4141"/><path d="M65.096 27.796c-1.18.189-2.916-.29-4.007 0-1.625.434-3.339 3.214-4.752 4.004.79 1.635 1.725 3.125 2.081 5.194 1.948-3.337 4.151-6.429 6.678-9.198ZM58.262 27.64c-3.806.412-7.245 1.168-9.505 3.114 3.94 1.413 7.58-1.045 9.505-3.114ZM42.08 28.83c1.224 1.146 2.749 2.002 4.452 2.67.334-.067.055-.734.144-1.035-1.591-.478-2.637-1.512-4.596-1.635ZM65.686 28.975c-.245-.045-.256.144-.446.144-2.08 4.605-8.202 9.02-5.787 16.028.946-1.312.701-2.825 1.035-4.16.623-2.436 1.848-4.905 2.972-7.118.756-1.513 1.836-2.503 2.226-4.45v-.444Z" fill="#fff"/><path d="M84.549 30.165c-.957 1.868-1.937 3.704-3.561 4.894.578 1.257 1.29 2.37 1.78 3.715 2.037-1.535 3.951-5.85 1.78-8.61Z" fill="#FFA31D"/><path d="M34.646 31.055c-.39.567-.022 1.446.445 1.635.312-.09.479-.312.746-.445-.223-.523-.456-1.657-1.19-1.19Z" fill="#fff"/><path d="M66.876 32.545c-.445 1.635-.4 3.76-.59 5.64h2.371c-.556-1.925-1.335-3.616-1.78-5.64Z" fill="#FFA31D"/><path d="M87.22 34.025c-1.123 2.235-1.802 4.927-4.006 6.084.29 1.2.746 2.224.746 3.715 1.948-1.124 3.194-2.948 4.607-4.605-.1-2.08-.645-3.715-1.346-5.194Z" fill="#7A4141"/><path d="M44.751 35.215c-.534.11-.667.622-.59 1.334.29.212.958.49 1.336.145-.078-.667-.467-1.012-.746-1.48ZM32.275 46.638c-.578-1.791-1.502-3.248-2.37-4.75-8.169-.2-12.565 3.37-17.974 5.94 2.972-4.75 9.471-7.263 17.518-7.42-.279-.71-.245-1.734-.59-2.38-4.007-1.123-8.97-1.4-13.367.59-1.124.512-2.18 1.235-3.272 1.78-1.302.656-2.604 1.056-3.416 1.635C6.3 43.823 2.76 49.83 6.277 52.722c1.803 1.468 4.953 1.423 7.424.745 6.321-1.724 11.073-6.518 18.574-6.83Zm-22.28 2.525c-.012 1-1.024 1.712-1.926 1.334-.078-1.09 1.024-1.702 1.926-1.334ZM48.903 37.74c-.713.122-.924 1.134-.445 1.634h.745c.39-.533.022-1.334-.3-1.635ZM53.81 38.774h-.59c-.044.534-.033 1.023.59.89v-.89Z" fill="#fff"/><path d="M69.246 39.363c-.968.223-1.669.701-2.971.59.056.69.1 1.38.3 1.924 1.314.256 2.16-.133 3.417-.3-.033-.934-.423-1.535-.746-2.214Z" fill="#7A4141"/><path d="M70.437 42.489c-1.057.478-2.136.934-3.561 1.034-.022 2.547 2.426 3.693 5.053 2.67-.323-1.413-1.035-2.436-1.492-3.704Z" fill="#FFA31D"/><path d="M42.97 42.633c-.6-.044-.333 1.213.301.89.034-.434-.345-.456-.3-.89ZM50.839 54.502c3.628-1.469 6.31-3.894 7.579-7.72-.2-.144-.556-.144-.59-.445-2.894 2.07-4.74 5.973-6.99 8.164Z" fill="#fff"/><path d="M72.519 47.083c-1.069.467-2.048 1.023-3.718.89.245.945.969 1.412 1.336 2.224 1.57.078 2.871-.1 4.007-.445-.468-.945-1.191-1.668-1.625-2.67ZM89.302 47.383c-3.039 4.182-6.589 7.864-14.112 7.575 1.469.812 2.693 2.524 4.452 2.669 3.817.322 8.035-5.072 9.649-7.274.01-.99.01-1.98.01-2.97Z" fill="#7A4141"/><path d="M37.473 52.433c-4.285 4.871-9.504 9.599-17.072 10.689 2.615-2.247 6.065-3.215 8.914-5.05 2.883-1.869 5.086-4.249 7.58-6.385-.568-.444-1.948-3.314-3.273-2.97-5.72 1.513-14.79 5.284-18.864 10.089-1.491 1.769-2.771 5.239-1.78 7.419.478 1.056 1.791 1.602 2.37 2.67 8.825 1.545 17.618-3.75 22.125-8.31 1.224-1.234 3.005-3.047 2.526-5.338-.267-1.28-1.524-1.969-2.526-2.814ZM18.609 63.856c-.223.956-1.503.878-2.671.89.022-1.146 2.048-1.268 2.67-.89Z" fill="#FFC440"/><path d="M75.045 50.653c-1.08.311-1.914.856-3.272.89.134 1 1.113 1.168 1.48 1.924 1.336-.367 2.605-.256 4.308-.445-.924-.712-1.993-1.268-2.516-2.369Z" fill="#FFA31D"/><path d="M45.942 52.722v.745c.434.133.456.133.89 0-.145-.411-.467-.623-.89-.745Z" fill="#fff"/><path d="M89.001 53.467c-2.126 2.08-3.895 4.527-7.123 5.495 1.547 2.024 4.185 3.448 5.643.745.868-1.624 1.057-4.538 1.48-6.24Z" fill="#FFA31D"/><path d="M62.124 55.102c.479.712 1.392.668 2.082 1.035 1.958 1.045 3.706 2.925 5.197 4.749 2.26 2.77 4.808 5.539 5.642 9.499-3.205-5.85-7.2-10.912-13.51-13.659-.167.523-.323 1.057-.746 1.335 2.782 2.558 5.097 5.617 6.978 10.088 1.068 2.536 2.95 7.475 6.088 7.274 1.947-.122 4.93-4.905 4.607-7.863-.6-5.462-8.347-12.18-13.956-12.914-.668-.078-2.07-.7-2.382.456ZM45.196 58.806c-1.58 3.715-3.528 7.063-6.533 9.354 1.38-3.125 4.619-5.672 5.498-9.799-.423-.767-1.247-1.134-1.925-1.635-.123-.022-.145.056-.145.145-1.491 3.86-4.674 6.55-8.169 9.354-3.172 2.547-7.19 5.506-8.47 9.054-.856 2.369.835 4.96 2.816 5.339 2.727.522 6.333-1.891 7.869-3.115 3.773-3.003 7.39-7.83 9.36-13.358.556-1.568 1.925-4.293-.301-5.339ZM29.604 76.18c1.168-2.937 3.995-4.216 6.388-5.94h.3c-1.624 2.58-4.15 4.271-6.688 5.94Z" fill="#fff"/><path d="M59.152 60.152c-.479.9.456 1.89.89 2.97 1.236 3.07 1.347 8.798-.59 11.723.334-4.66.846-10.5-1.636-13.659-.59.245-1.313.367-1.925.59 1.825 6.963-4.218 17.74 2.081 20.922 5.877.534 7.156-5.139 7.134-10.69-.033-5.527-3.283-9.376-5.498-11.867-.155.01-.311.01-.456.01Z" fill="#FFC440"/><path d="M47.868 60.296c-.123-.022-.145.056-.145.145.479 5.117-2.95 8.932-4.752 12.769-1.102 2.347-2.682 8.598.89 9.054 1.803.233 3.862-1.735 4.608-2.525 3.695-3.882 5.398-10.544 5.642-17.808-.879.178-1.67-.333-2.225 0 .177 4.094-.902 6.919-2.672 9.054.223-2.847 1.904-5.516 1.636-9.354-1.202-.245-2.214-.667-2.982-1.335ZM46.833 3.159c.378 1.713.022 4.605-1.035 5.784 1.28-.2 3.728-4.805 1.035-5.784ZM80.387 49.752c1.191-1.034 1.558-2.57 1.336-4.75-.668-6.54-5.008-11.9-8.314-16.917-1.703-2.58-3.417-5.094-5.053-7.575-1.702-2.591-3.516-5.072-5.342-7.274-.211.679.535 1.068.89 1.635 1.158 1.847 2.193 4.06 3.273 6.084 1.447 2.748 3.205 5.417 3.862 8.61-.957-.568-1.514-1.892-2.082-2.97-1.736-3.326-3.46-7.264-5.497-10.39.022-.366-.178-.255-.145 0 2.582 7.253 5.843 17.43 8.914 25.383.969 2.514 2.193 5.784 4.163 7.274 1.035.801 2.637 1.257 3.995.89ZM73.41 36.55c-.59-1.2-1.847-3.28-1.335-4.604.467 1.334 2.003 3.114 1.335 4.604Zm5.197 10.534c-.59-1.591-1.469-3.682-1.48-5.34 1.102.957 2.382 3.827 1.48 5.34ZM61.534 45.459c.401.378 2.438-.579 3.562 0-.757-2.447-1.48-6.04-.746-9.054-.39-.312-.623 1.112-.89 1.78-.802 1.968-1.848 5.005-1.926 7.274Z" fill="#fff"/><path d="M89.001 41.299c-1.469 1.546-2.704 3.325-4.752 4.304.145 2.814-.19 5.15-1.925 6.084 2.159-.367 3.873-2.914 5.497-4.893.49-.601 1.37-1.39 1.48-1.925.223-1.09-.478-2.358-.3-3.57Z" fill="#FFA31D"/><path d="M65.685 46.793c-1.458-.122-2.526.145-3.717.3-.011.757.312 1.18.3 1.925 1.392.189 3.24-.067 4.308.445-1.058.534-2.838.089-4.163 0v2.97c4.652-.145 7.223 1.78 10.095 3.414.178.212.055.011 0-.144-2.716-2.536-5.443-5.039-6.823-8.91Z" fill="#fff"/></g><defs><clipPath id="a"><path fill="#fff" transform="matrix(-1 0 0 1 109 0)" d="M0 0h109v85H0z"/></clipPath></defs></svg>