<svg width="70" height="130" fill="none" xmlns="http://www.w3.org/2000/svg"><g clip-path="url(#a)" fill-rule="evenodd" clip-rule="evenodd"><path d="M8.223 72.137c-.074-1.25-1.4-2.16-2.167-3.337-.825-1.25-1.193-2.822-2.166-3.925-.044-.147-.162-.235-.398-.191-.972 3.396 1.489 7.63 4.73 7.453ZM3.905 74.49c1.105 0 2.21-.015 2.55-.78-4.156-.44-4.45-4.719-6.293-7.453-.84 3.322 1.74 6.439 3.743 8.233ZM68.791 129.809c3.183.897 6.234-1.411 7.87-3.337-1.916-.221-3.626 1.47-5.512 2.161-.825.294-2.122-.015-2.358 1.176Z" fill="#492727"/><path d="M17.271 69.785c9.727.78 20.19-.661 29.105-.397-5.776 2.161-12.143 3.69-18.877 6.277-5.438 2.088-13.499 4.587-15.93 9.218-.502.956-1.017 2.823-.782 4.116 1.297 7.116 13.278 2.544 17.493.588 9.004-4.19 16.652-9.967 23.593-15.686.472-.382 1.164-1.617 1.96-.984-7.324 6.909-16.652 13.73-24.374 20.992-3.552 3.337-8.4 6.822-7.87 13.143.325 3.793 4.038 8.835 10.036 7.644 1.385-.279 3.566-1.749 4.716-2.749 2.033-1.764 4.347-4.616 6.1-7.262 5.247-7.924 9.506-18.523 14.944-24.918-3.596 9.6-12.232 20.64-13.175 32.974-.368 4.778 1.415 9.218 5.895 8.63 1.783-.236 3.374-2.5 4.524-4.117 3.831-5.424 5.659-12.113 7.073-19.228.207 3.631-.265 7.526 0 11.187.413 5.616 3.14 15.95 8.46 16.083 5.054.132 6.808-5.248 7.073-9.806.663-11.025-4.097-22.08-4.524-30.99 1.606 5.66 3.404 12.261 5.511 19.024 1.96 6.321 3.655 13.407 7.472 17.067.987.956 2.858 1.912 4.332 1.956 5.556.205 6.499-4.852 5.895-10.394-1.061-9.908-8.046-18.288-11.598-24.712 5.305 6.777 10.994 15.142 18.48 20.787 2.343 1.764 6.16 4.087 9.638 3.528 1.296-.206 4.465-1.867 4.922-2.94.795-1.852-.148-5.483-.781-7.056-3.906-9.762-16.196-14.863-22.813-21.376 7.678 2.926 15.223 10.585 24.979 11.188 4.244.264 8.444-.838 7.663-5.498-1.297-7.762-13.351-9.806-19.069-13.143.059.015.132-.014.191 0 8.371 2.426 21.162.882 22.606-5.88.693-3.25-.751-6.116-1.768-7.454-4.362-5.762-15.739-2.778-24.581-1.764-6.617.765-12.924 2.338-18.096 2.161 10.389-2.455 26.467-2.455 36.178-6.674 3.375-1.455 7.648-4.704 8.061-8.438.663-5.969-5.276-7.439-10.625-7.057-7.309.53-14.737 3.587-19.276 5.69 2.682-2.03 5.571-4.396 8.253-6.866 2.697-2.47 5.85-4.822 7.869-7.453 1.091-1.44 2.977-4.543 2.358-7.056-.324-1.309-2.741-3.543-4.332-3.926-2.624-.632-5.144.809-7.28 1.956-5.88 3.19-10.42 6.63-14.354 10.981-4.17 4.631-7.987 9.041-11.406 13.73-1.179 1.633-1.813 3.735-3.537 4.514 4.775-7.836 11.907-15.362 16.328-24.124 1.533-3.058 3.316-6.88 3.537-9.997.295-4.292-.913-8.35-5.703-7.453-1.326.25-3.522 2.043-4.716 3.131-6.13 5.601-9.814 14.48-12.776 22.17.604-8.101 4.288-20.89.191-28.241-2.151-3.852-9.608-6.895-13.366-3.146C57.827 4.998 55.838 12.363 56 19.17c-2.8-5.145-5.526-14.201-13.174-14.128-5.276.06-6.308 5.19-5.703 10.6.604 5.424 4.347 11.334 6.1 15.098-4.936-4.278-9.976-12.864-17.3-14.51-3.964-.882-7.339 1.793-7.28 5.88.074 4.293 3.802 7.703 6.293 10.011 7.22 6.645 17.124 13.084 24.772 19.23 1.09.881 2.859 1.572 2.947 3.145-3.375-.617-6.44-2.602-9.431-4.513-5.733-3.66-11.185-8.027-17.89-10.79-3.302-1.353-8.695-3-12.188-2.352-5.585 1.014-4.318 7.806-1.768 10.79 4.966 5.822 14.899 8.556 23.21 10.79-7.634-1.146-19.688-1.999-24.979 1.956-.972.72-2.829 2.954-2.755 4.307.191 3.455 7.117 4.837 10.418 5.101Z" fill="#492727"/><path d="M69.97 46.631h-4.923c-1.429-3.66-2.637-8.1-3.728-12.951-.987-4.337-2.638-9.291-2.756-13.922-.088-3.19.604-7.071 1.37-10.011.855-3.22 2.285-7.292 5.512-7.645 3.198-.353 6.278 1.97 7.28 4.116 2.55 5.528.943 14.23 0 20.405-1.164 7.542-1.812 13.525-2.756 20.008Zm-3.346-8.041c1.032-4.44.929-12.467-.191-16.671-.81 4.984.619 10.79.191 16.67Z" fill="#FFC440"/><path d="M61.909 47.41c-1.312 1.441-2.446-1.5-3.345-2.94-5.246-8.57-9.122-20.39-13.764-28.828 1.37 5.762 4.568 11.305 6.882 17.067 1.739 4.337 3.58 8.468 5.894 12.364.649 1.073 1.946 2.323 1.577 3.734-.87.25-1.208-.912-1.577-1.367-6.867-8.674-14.928-19.067-18.081-31.21-1.076-4.131.088-10.526 5.113-8.233.781.353 2.093 1.294 2.756 1.956 6.911 7.027 9.431 22.095 13.366 32.959.545 1.5 1.606 2.999 1.179 4.498ZM56.205 50.953c-1.827 1.911-3.404-.382-4.716-1.367-7.338-5.513-15.208-10.981-22.222-17.259-2.52-2.264-5.998-5.263-7.28-8.438-1.106-2.75-.884-6.689 3.537-5.292 2.755.867 6.94 4.763 9.048 6.865 2.711 2.72 5.113 5.483 7.471 8.232 5.305 6.175 10.566 11.276 14.162 17.26Zm-17.89-15.891c-3.434-4.028-7.516-8.453-11.804-10.982 3.772 3.822 7.28 7.895 11.804 10.982ZM47.938 55.658c-10.757-2.161-20.543-6.969-29.886-11.188 3.906 3.323 9.609 5.425 15.135 7.645 5.556 2.234 11.598 3.998 17.11 6.086-.487.911-1.902.28-2.55.191-10.817-1.411-21.295-3.073-29.105-7.645-2.535-1.484-5.998-3.675-7.074-6.277-1.34-3.205.192-5.395 4.127-5.101 12.761.97 22.561 11.922 32.243 16.289Z" fill="#fff"/><path d="M64.075 49.571c6.337-1.043 11.656 1.397 13.764 4.91 2.431 4.043 2.107 10.894.398 13.54-1.636 2.529-5.924 5.44-8.65 6.086-3.891.926-8.607.206-11.805-1.764-3.699-2.293-6.808-8.291-4.922-13.73 1.165-3.338 6.941-8.336 11.215-9.042Zm3.92 2.162c-4.804.94 2.063 4.248 0 0Zm-9.83 3.146c.457.264.649.793 1.577.588.398-.31.457-.986.398-1.765-.737-.852-2.417-.352-1.974 1.177Zm12.792 2.352c1.179.147 1.71-1.456.987-2.544-2.505-1.19-2.593 2.352-.987 2.544Zm-7.87 1.955c1.209-.177 1.725-1.03 1.577-2.543-1.62-2.206-3.595 1.72-1.577 2.543Zm-8.06.397c.383.647 1.739.764 2.549.397.339-.588.501-1.338.398-2.352-1.238-1.559-3.345-.339-2.947 1.955Zm20.44 7.056c2.033-.72 3.86-4.704 1.96-6.865-.487 2.25-2.27 5.101-1.96 6.865Zm-12.188-4.513c.472.456 1.93.617 2.358 0 .737-2.264-3.154-2.484-2.358 0Zm6.499 6.483c-.089.868.059 1.514.398 1.955 1.43.47 2.667-.308 2.358-2.16-.722-.927-2.093-.471-2.756.205Z" fill="#FFA31D"/><path d="M49.515 62.523c-.133 1.5.398 2.352.398 3.734-8.724.485-18.17 1.338-27.528 1.367-3.11.015-11.937-.088-11.804-3.734.132-3.337 6.793-4.16 10.418-4.322 9.697-.382 19.261 2.455 28.516 2.955Zm-32.642 1.176c2.608-.015 6.072 1.103 8.253.191-1.946-.72-6.234-1.382-8.253-.191Z" fill="#fff"/><path d="M57.782 75.857c-7.604 6.865-12.26 20.375-18.686 29.416-1.076 1.529-2.933 3.484-4.333 4.513-3.67 2.691-10.08 3.646-10.625-2.543-.265-3.117 1.415-6.16 2.756-8.041 1.562-2.22 4.642-4.131 7.074-6.087 6.867-5.483 15.724-12.745 21.235-18.831a10.61 10.61 0 0 0 2.579 1.573Zm-28.117 30.019c3.684-3.131 6.307-7.306 9.829-10.6-.03-.235.03-.558-.192-.587-3.537 3.41-7.162 6.718-9.637 11.187Z" fill="#FFC440"/><path d="M63.677 77.62c.87.295 0 1.162.192 1.956-.442-.265-.074-1.352-.192-1.955Z" fill="#fff"/><path d="M66.433 77.827c1.326.352 1.076 2.175 1.179 3.13 1.105 10.292-.516 22.023 1.768 31.387-.31-5.174-.515-11.158-.397-17.259.117-6.042-.546-12.142-.192-17.258 1.105-.192.914 1.337.987 1.764.943 5.542 1.415 10.849 2.55 16.48 1.665 8.276 4.642 19.302.191 25.697-4.406 2.219-5.82-2.279-6.882-5.69-3.257-10.481-.5-27.182.398-37.663-.014-.28-.03-.559.192-.588h.206ZM20.027 86.25c10.02-3.704 19.703-8.556 28.707-13.73 1.09-.618 2.181-1.926 3.537-1.573-.325 1.646-2.284 2.234-3.537 3.145-6.794 4.91-13.19 9.688-21.825 13.54-2.77 1.235-7.088 3.499-11.008 2.94-1.783-.25-3.287-1.396-2.358-3.734.752-1.881 5.968-4.057 7.663-4.91 8.326-4.175 18.052-7.556 26.54-10.6.118.5-.633.765-.987.986C38.728 77.34 28 81.06 20.027 86.25Z" fill="#FFC440"/><path d="M51.092 110.771c3.95-9.982 7.884-19.993 10.817-30.99.147 6.984-1.076 14.305-2.55 21.185-1.385 6.468-3.772 13.333-7.663 16.479-3.183 2.558-5.113.78-4.716-4.322.929-12.245 9.358-22.433 13.175-32.37-.015-.06.015-.133 0-.192.368 1.396-1.209 5.366-1.769 7.453-2.092 7.806-5.717 15.436-7.294 22.757Z" fill="#fff"/></g><defs><clipPath id="a"><path fill="#fff" d="M0 0h141v130H0z"/></clipPath></defs></svg>