<svg width="126" height="144" fill="none" xmlns="http://www.w3.org/2000/svg"><g clip-path="url(#a)" fill-rule="evenodd" clip-rule="evenodd"><path d="M124.615 66.141c-.523-2.491.6-5.182.215-8.273.277-.016.308-.277.647-.216.738 2.307.892 7.259-.862 8.489ZM113.289 83.334c-2.031 5.413-4.539 11.226-4.355 17.623.139 4.921 1.893 8.996 1.524 15.224 2.17 4.214 7.063 6.459 6.094 13.271-.293 2.076-2.432 6.69-4.14 8.274-4.801 4.444-14.034.2-22.636 1.092-4.185.43-7.586 3.275-11.756 3.706-6.447.661-8.956-3.137-14.803-3.706-4.416-.431-6.31.569-9.14.876-.924.108-2.016-.123-3.047 0-3.74.477-7.571 2.891-11.972 3.476-5.078.676-11.018 1.245-16.542.43-8.263-1.199-16.034-8.612-11.972-18.715 3.031-7.551 11.295-13.594 21.99-14.363 17.726-1.276 32.899 3.783 49.856 3.045 6.34-.277 10.803-1.907 16.758-.877-.708-5.766 2.046-10.303.43-15.224-.784-2.383-5.216-5.674-7.401-7.181-7.525-5.167-15.48-9.92-18.512-18.5-.584-1.676-.569-3.63-1.308-6.09-.292-.984-1.415-1.676-1.523-3.26-.215-3.03 2.339-5.136 3.047-7.828-1.4-.415-1.647-1.983-2.185-3.26C43.75 36.415 15.422 21.852-13.861 8.273-15.215 4.521-12.953 1.415-10.6 0-4.705.23-.643 2.937 3.773 5.213c13.819 7.136 28.668 13.38 41.594 20.883C55.4 31.94 66.387 36.554 75.85 42.629c1.185-1.707 4.478-.661 5.448.43 1.446-1.399 4.324-5.905 6.54-6.304 2.646-.493 4.124.968 5.447 2.83.262 1.168-1.046 1.568-.43 2.398 1.461-.215 2.184.554 3.477.43 1.23-.122 1.662-.968 2.831-.876 2.385.2 3.247 3.014 4.801 4.783 1.708.769 3.524 1.4 4.786 2.614.646-.37 1.169-.861 1.954-1.092 1.031 1.292 2.847 1.8 3.709 3.26a64.742 64.742 0 0 0-.878 2.614c1.847.554 2.432 2.353 4.14 3.045.385-.707.615-1.568 1.308-1.953 4.709 1.938 3.185 10.488 1.739 13.933-1.955 4.598-5.417 9.211-7.433 14.594Z" fill="#492727"/><path d="M49.291 33.94c9.187 3.075 16.634 9.057 24.605 12.625.323-.477.431-1.169.877-1.523-1.046-1.737-3.139-2.368-4.785-3.26-8.433-4.598-17.558-8.55-26.129-13.486C28.902 19.684 12.422 12.318-3.628 4.352c-1.908-.953-3.862-2.614-5.447-2.384-1.832.262-2.97 2.86-1.955 4.568.6 1.03 3.632 1.799 5.448 2.614 5.278 2.383 10.725 5.674 15.68 8.058 20.727 9.919 44.04 22.314 62.49 32.186.231-.477.354-1.092.647-1.522-.277-.954-1.632-1.323-2.4-1.738-6.572-3.568-14.65-7.428-21.113-11.318.03-.246-.046-.385-.215-.43.03-.185-.093-.2-.216-.216v-.23ZM-5.367 6.75c2.785.861 5.786 2.645 8.925 3.921 5.955 2.43 11.91 5.444 17.42 8.274 2.892 1.476 6.262 2.814 8.063 4.998-5.986-2.338-12.142-5.598-18.297-8.49C6.22 13.334 1.02 11.58-3.413 9.366c-1.446-.723-3.477-1.538-3.262-2.614.708-.23.739-.185 1.308 0Zm51.611 25.881c-1.846-.63-3.616-1.322-4.785-2.614 2.015.446 4.077.861 4.785 2.614ZM74.327 63.096C79.99 55.407 84.93 47.011 91.315 40.03c-.677-.692-1.584-1.169-2.615-1.522-.185-.046-.2.092-.216.215h-.43c-4.017 5.336-9.187 10.595-12.419 17.193-1 2.03-2.493 4.644-1.308 7.181Zm9.571-16.316c-1.615 3.168-3.662 5.92-5.878 8.489.893-3.768 3.54-6.905 5.878-8.489Z" fill="#7A4141"/><path d="M79.328 59.62c.739.862 1.477 1.723 2.17 2.615 5.694-4.813 9.602-11.426 13.941-17.623-1.738-.477-3.231-.385-5.216-.215-4 4.69-7.263 10.149-10.895 15.224Z" fill="#FFA31D"/><path d="M79.544 68.325c.477 1.184 1.554 1.784 2.616 2.399 7.186-6.89 13.172-14.994 18.512-23.713-.277-1.108-1.093-1.661-1.523-2.615-6.679 7.828-11.88 17.132-19.605 23.929Zm12.203-10.888c1.385-3.183 2.97-6.167 5.663-8.058-1.493 3.09-3.047 6.105-5.663 8.058Z" fill="#7A4141"/><path d="M78.451 44.381c-1.415 2.122-4.077 5.136-3.477 7.828 1.523-2.461 3.216-4.768 4.57-7.397-.662.169-.415-.585-1.093-.43Z" fill="#fff"/><path d="M87.391 68.97c.831 1.123 1.524 2.4 2.832 3.045 5.54-7.289 10.987-14.701 16.988-21.544-1.4-.846-2.739-1.769-4.355-2.4-4.478 7.659-9.971 14.287-15.465 20.9Z" fill="#FFA31D"/><path d="M110.027 50.917C105.734 61.712 97.378 69.6 91.962 78.55c1.584.984 2.246-1.384 2.83-2.184 5.51-7.443 12.05-15.793 16.543-24.374-.492-.292-.846-.738-1.308-1.076Z" fill="#7A4141"/><path d="M112.428 55.484c-3.847 7.766-8.909 14.317-13.495 21.33 1.554.768 2.724 1.922 4.355 2.614 4.385-6.628 8.217-13.825 12.849-20.238-1.031-1.46-2.37-2.568-3.709-3.706Z" fill="#FFA31D"/><path d="M119.614 59.405c-4.062 8.55-8.048 17.193-13.28 24.59 4.34-2.215 5.709-6.751 8.279-11.534 2.093-3.952 4.955-7.135 5.001-13.056Z" fill="#7A4141"/><path d="M78.897 60.697c-.677.338-.769 1.261-1.308 1.738.508.661.97 1.353 1.524 1.953.723-.077.939-.646 1.308-1.092-.308-1.061-1.431-1.307-1.524-2.599Z" fill="#fff"/><path d="M76.713 64.618c-1.216.385-.985 2.215-3.047 1.738 1.985 5.89 4.309 10.919 9.14 15.01 2.124 1.798 4.91 3.167 7.402 4.782 4.447 2.906 10.972 5.859 11.972 11.964.585 3.537-.292 7.366-.646 11.533-.385 4.337 2.662 11.334-.216 13.487-3.2 2.399-10.171-.185-13.941 1.953 4.647 2.968 16.557 1.43 17.85-4.137.677-2.937-.662-7.089-.877-10.226-.785-11.41 3.4-21.099 6.97-27.85-1.508 1.23-2.416 3.999-4.785 4.352-2.339.339-4.463-1.276-6.525-2.183-.061-2.322-3.108-2.984-4.57-4.568-3.493 2.338-6.817-1.291-9.14-2.83 1.015-2.23-2.032-2.86-2.832-4.567-2.77.816-6.278-1.768-6.755-4.136-.323-1.6 1.693-3.168 0-4.322Zm3.278 10.657c-.785.554-1.77-.46-1.093-1.307.862-.061 1.185.431 1.093 1.307Zm3.046 2.83c-.292.308-1.23.308-1.523 0v-.877c.692-.569 1.585.031 1.523.877Zm2.385 2.399c5.094 6.52 19.143 5.244 18.728 16.531-1.77-2.414-2.416-5.12-4.786-6.966-4.632-3.614-12.541-3.89-14.372-9.58a4.2 4.2 0 0 0 .43.015Z" fill="#FFC440"/><path d="M86.945 70.062c-2.847 1.015.847 2.384 1.308 3.922.693.107.585-.585 1.093-.646-.57-1.323-1.878-1.907-2.4-3.276ZM101.533 81.811c.554-.384.816-1.076 1.093-1.738-1.647.523-3.462-2.29-4.355-2.398-.4-.047-1.077.584-1.092.645-.231 1.446 3.2 2.246 4.354 3.491Z" fill="#fff"/><path d="M106.549 105.309c-2.031 5.336 1.401 11.564.216 16.101-1.77 6.751-13.65 8.488-20.897 4.782-1.231.677-2.555 3.153-1.093 4.567 1.447.739 2.693-.461 3.924-.645-.354.999-2.077 2.383-3.924 2.183-3.277-.369-3.016-5.09-1.308-7.181.97-1.169 3.432-2.307 5.448-2.615 3.97-.615 8.601.108 11.11-1.953-2.94-.692-7.171.477-11.757.216-5.216-.292-9.079-2.107-14.803-1.092-3.354.6-6.14 2.26-5.232 6.966 3.693 4.214 9.48 6.736 16.111 6.52 4.063-.123 7.125-2.798 10.449-3.26 3.277-.446 6.232.277 8.494-.876 7.248-3.645 4.647-14.779 3.262-23.713Zm-32.007 21.099c1.631 1.091 3.786.538 5.017 2.183-4.57.492-8.325-1.691-9.802-4.998 2.062-1.491 3.077 1.692 4.785 2.815Z" fill="#FFC440"/><path d="M110.243 119.672c.569 1.63-.847 2.706-.877 4.352-.031 2.061 1.123 3.875.646 6.09-1.57 7.504-11.418 4.874-20.897 5.874-5.909.63-7.817 3.66-14.157 3.045-3.8-.369-6.632-2.707-10.448-3.476-6.54-1.322-13.68.846-19.82 1.308-3.616.276-7.463.476-11.325.215-5.894-.4-13.403-3.06-14.588-6.751-1.985-6.136 2.185-11.549 5.878-13.487 4.616-2.414 13.45-3.029 20.466-3.045 3.508 0 7.032.785 10.233 1.523 4.847 1.107 8.864 2.968 13.942 3.706 8.801-3.798 20.435 1.968 30.698-.646-.184-1.476-.323-3.014-.877-4.137-4.847-1.261-9.34.739-13.064 1.077-11.895 1.122-23.19-1.384-33.961-2.614-4.032-.462-8.617.046-12.634-.431-10.756-1.292-21.835 3.46-25.697 10.657-3.17 5.936-1.847 13.471 2.83 16.316 4.74 2.876 13.28 2.645 20.036 1.738 8.91-1.2 15.926-5.629 26.56-3.922 4.339.692 7.57 2.815 10.879 3.261 6.063.83 9.14-2.676 14.803-3.261 8.002-.83 17.142 2.661 21.989-1.307 4.309-3.475 4.124-13.732-.615-16.085Zm-90.127 17.193c-3.57.369-5.601-2.661-5.878-6.305.046-.17.184-.262.43-.216 1.355 2.615 3.109 4.86 5.448 6.521Z" fill="#FFC440"/><path d="M108.719 126.638c-.785-.2-1.2 1.246-1.954 1.953-.739.692-2.016 1.6-2.832 1.953-2.923 1.277-6.14.077-10.233.877-1.908.369-3.339 2.06-5.016 2.614-8.833 2.891-18.773-1.722-22.205-6.966-.17-2.768.03-5.183 1.093-6.736-6.633-1.061-11.88-4.198-20.466-4.782-10.71-.739-24.56.753-26.775 8.704-.462 1.676-.416 4.49.215 5.874 1.308 2.83 8.587 5.075 13.495 5.444 3.693.261 7.494.077 11.11-.215 5.602-.446 12.819-2.584 19.374-1.308 4.555.877 7.648 3.953 13.71 3.261 4.31-.493 8.572-2.999 13.927-3.476 5.785-.523 13.387 1.784 16.111-2.829.354-1.277.492-2.738.446-4.368Zm-74.016-8.058c1.477-.477 3.078-1.138 4.57-1.307 6.879-.769 13.25 1.199 18.943 2.83 1.985.569 4.262.092 5.447 1.737-7.663-.015-15.018-3.506-23.728-2.829-3.17.246-5.77 1.676-8.925 1.522.37-1.522 2.37-1.538 3.693-1.953Zm-5.663 6.09c-.307-.016-.477.107-.646.215-.8-.446-1-1.384-.43-2.184 1.338-.261 1.4 1.2 1.076 1.969Zm1.308 3.921c3.432 2.322 9.218 2.907 14.588 2.168 1.708-.23 3.308-1.522 5.232-1.737.708-.077 1.631.246 2.4.215 4.463-.138 10.449-1.338 12.188 1.953-7.94-2.737-17.789 2.245-27.222 1.523-2.892-.216-6.709-.662-7.832-3.707.292-.03.354-.338.646-.415Zm42.886 6.09c-2.954-.169-5.124-1.107-6.309-3.045 2.432.692 4.463 1.784 6.31 3.045Z" fill="#FFC440"/><path d="M106.104 55.915c-5.202 6.627-11.85 14.84-16.758 21.76 2.354-.708 3.493-3.168 4.786-5.014 3.8-5.367 8.602-10.58 11.972-16.746Z" fill="#7A4141"/><path d="M103.933 83.764c5.894-6.428 10.018-14.655 13.926-23.067-4.847 7.474-8.894 15.778-13.926 23.067Z" fill="#fff"/></g><defs><clipPath id="a"><path fill="#fff" transform="matrix(-1 0 0 1 126 0)" d="M0 0h143v144H0z"/></clipPath></defs></svg>