<svg width="240" height="78" fill="none" xmlns="http://www.w3.org/2000/svg"><g clip-path="url(#a)" fill="#FEC827"><path d="M172.039 26.488c-.531.085-1.125.106-1.655 0-2.143-.403-2.674.51-2.568 2.547.17 3.247.043 6.495.043 9.763-3.332-3.098-6.175-6.24-8.678-9.614-1.549-2.08-3.226-2.844-5.814-2.76-2.058.064-2.398.7-2.377 2.547.106 5.922.043 11.865.043 17.787 0 4.775 0 4.711 4.816 4.754 1.676.021 2.271-.382 2.207-2.144-.149-3.417-.042-6.855-.042-11.079 3.182 3.842 6.025 7.004 8.529 10.4 1.592 2.165 3.353 2.971 6.005 2.865 1.91-.085 2.27-.637 2.249-2.377-.085-6.664-.127-13.35.021-20.015.064-2.27-.615-3.035-2.779-2.674ZM126.759 26c-7.808-.17-13.919 5.242-14.152 12.565-.255 7.47 5.644 13.286 13.622 13.414 7.935.127 13.94-5.243 14.089-12.586.148-7.641-5.475-13.202-13.559-13.393Zm-.233 20.015c-3.841.02-6.684-2.908-6.747-6.92-.064-4.117 2.864-7.195 6.789-7.152 3.862.042 6.557 2.95 6.578 7.068 0 4.138-2.716 7.004-6.62 7.004ZM206.836 48.37c.212-1.273.361-2.568-1.803-2.44-3.034.19-6.111-.064-9.166.085-1.804.085-2.143-.595-2.143-2.229 0-1.698.297-2.504 2.249-2.356 2.397.191 4.816-.063 7.214.085 2.334.149 1.676-1.486 1.634-2.59-.043-1.145.848-2.97-1.719-2.8-2.483.148-5.008-.065-7.49.063-1.825.085-1.825-.913-1.846-2.229-.042-1.358.255-1.995 1.825-1.931 2.949.127 5.941-.106 8.89.085 2.377.17 1.995-1.316 1.91-2.653-.085-1.253.848-3.057-1.846-2.993-5.262.149-10.546.106-15.829.021-1.443-.021-1.931.34-1.867 1.825.106 3.524.042 7.047.042 10.549 0 3.608.043 7.216-.021 10.825-.021 1.23.17 1.825 1.634 1.804a544.637 544.637 0 0 1 16.656 0c2.737.042 1.485-1.932 1.676-3.12ZM236.881 26.488c-2.419-.36-3.925.446-4.986 2.76-1.082 2.377-2.652 4.52-4.18 7.046-1.825-3.014-3.501-5.667-5.029-8.384-.573-1.019-1.188-1.464-2.376-1.4-1.804.105-3.629.02-5.962.02 2.567 4.288 4.795 8.3 7.277 12.141 1.613 2.505 2.377 5.03 2.249 8.044-.212 4.818-.063 4.712 4.711 4.818 2.058.042 2.61-.68 2.334-2.526-.679-4.542.742-8.468 3.352-12.161 1.613-2.25 2.928-4.712 4.308-7.11.551-.998 1.527-1.826 1.421-3.227-1.082 0-2.122.128-3.119-.02ZM101.913 31.54c0-5.498 0-5.455-5.58-5.073-1.189.085-1.634.446-1.592 1.634.064 2.038-.063 4.075.043 6.113.063 1.337-.404 1.74-1.719 1.698-2.589-.085-5.177-.021-7.766 0v-7.747c0-.828.17-1.804-1.146-1.677-1.994.191-4.031-.446-5.962.403-.233.234-.255.489-.042.743 0 .128.02.255.063.382-.106 1.359-.318 2.717.17 4.033-.233.658-.51 1.316.106 1.931-.785 2.335-.233 4.712-.318 7.09-.021 2.504.19 5.03-.085 7.492-.276 2.589.679 3.098 3.055 2.971 4.138-.212 4.138-.064 4.138-4.309v-1.103c0-4.351 0-4.351 4.37-4.351 5.114-.043 5.114-.043 5.114 4.966 0 4.776 0 4.67 4.796 4.776 2.015.042 2.44-.595 2.397-2.483-.127-5.816-.042-11.653-.042-17.49Z"/></g><g clip-path="url(#b)"><path d="M33.804 17.382C39.707 25.76 44.54 34.764 48.5 44.203c1.647 3.932 2.315 8.192 2.129 12.499-.125 2.933-.762 5.71-2.905 8.05-2.533-2.932-5.018-5.897-9.104-6.521 0-.156-.031-.266 0-.343.295-.515 1.616-.61.886-1.483-.575-.686-1.259.156-1.772.515-4.35 3.058-6.074 7.614-6.99 12.607-.435 2.388-.513 4.806-.373 7.225.031.53.062 1.154.684 1.232.714.078.683-.593.745-1.092.218-1.576 1.274-2.528 2.486-3.339 2.92-1.966 6.058-3.51 9.305-4.79 6.136-2.419 8.715-6.554 8.296-14.605-.295-5.788-2.206-11.11-4.785-16.258-4.909-9.846-10.144-19.473-17.275-27.914C27 6.63 23.893 3.573 19.947 1.545c-3.2-1.654-6.494-2.17-9.896-.562-4.49 2.122-6.556 6.428-5.686 11.952.933 5.882 3.698 10.953 7.007 15.775.9 1.326 1.895 2.605 2.89 3.87.434.56.388.764-.265 1.107C5.997 37.9 2.144 45.14.295 53.55c-1.429 6.522 2.501 11.312 9.943 11.999 9.041.811 17.057-1.966 23.768-8.239.124-.125.264-.234.357-.374.28-.484 1.259-.874.59-1.53-.698-.686-1.056.281-1.46.672-7.161 6.802-15.566 9.658-25.353 7.88-1.973-.36-3.806-1.265-5.017-3.044-2.16-2.34-2.098-5.18-1.476-7.957 1.227-5.492 3.868-10.298 7.69-14.417 1.46-1.576 3.215-2.747 5.142-3.698.854-.422 1.429-.375 2.066.405.978 1.186 2.097 2.263 3.153 3.402 5.158 4.79 10.704 9.003 17.29 11.687 2.083.842 4.18 1.575 6.417 1.825 1.398.156 2.827.14 3.728-1.17.87-1.264.342-2.543-.217-3.76-.218-.469-.435-.952-.746-1.358-6.105-8.035-13.966-12.966-24.157-13.7-1.243-.093-2.579-.078-3.744.281-1.74.53-2.734.047-3.806-1.404-3.79-5.18-7.224-10.516-8.637-16.898-.513-2.34-.622-4.681.14-6.99 1.087-3.34 4.272-5.68 7.782-5.711 3.123-.39 5.67.999 8.063 2.73 4.925 3.496 8.669 8.161 11.993 13.2ZM17.275 33.874c1.849-.499 3.76-.702 5.701-.515 7.83.78 14.168 4.51 19.636 9.97 1.43 1.42 2.704 2.997 3.434 4.9.699 1.81.124 2.637-1.787 2.637-.683 0-1.398-.016-2.05-.203-10.145-2.715-18.083-8.784-24.934-16.523-.016 0 0-.078 0-.266Zm17.29 28.663c1.29-2.886 3.06-3.698 5.748-2.574 2.501 1.045 4.288 2.995 5.966 5.055.186.234.341.453.202.78-.513 1.14-3.511 1.654-4.335.734-2.035-2.263-4.24-4.198-7.58-3.995Zm-1.77 4.057c.652-2.652 2.112-3.401 4.442-2.434 1.352.562 2.377 1.545 3.434 2.528 1.087 1.014 1.289 1.544-.373 2.278-1.383.608-2.082.655-2.983-.671-.979-1.467-2.563-2.029-4.52-1.701Zm-1.414 7.77c.295-2.153.528-3.9.776-5.632.078-.609.498-.843 1.057-.952 1.367-.281 3.278.78 3.852 2.06.265.592-.077.733-.419.904-1.802.89-3.48 1.935-5.266 3.62Z" fill="#1C2835"/><path d="M19.683 38.602c-1.057-1.123-2.16-2.216-3.154-3.401-.637-.765-1.212-.812-2.066-.406-1.926.952-3.682 2.122-5.142 3.698-3.822 4.119-6.463 8.925-7.69 14.417-.621 2.778-.684 5.617 1.476 7.958 2.408-1.545 5.266-1.436 7.907-2.06 2.626-.624 5.204-1.31 7.736-2.231 3.9-1.404 5.376-4.104 4.599-8.239-.513-2.668-1.523-5.164-2.75-7.583-.326-.67-.885-1.295-.916-2.153Z" fill="#FAAF40"/><path d="M33.804 17.382c-3.324-5.04-7.068-9.705-11.993-13.278-2.376-1.717-4.94-3.105-8.062-2.731 4.38 2.606 5.53 5.492 4.07 10.766-.823 2.996-1.32 5.945-.435 8.988.932 3.167 2.765 5.617 5.67 7.27 4.04 2.31 10.378.157 10.828-5.538.156-1.842.078-3.652-.078-5.477Z" fill="#F9AF41"/><path d="M57.541 36.667c-1.973-.873-2.61-2.605-1.895-5.024.14-.468.652-1.014-.078-1.295-.761-.28-.932.468-1.103.983-.404 1.17-.342 2.372-.078 3.573.171.733.047 1.17-.73 1.623-1.755.998-2.283 2.902-1.506 4.587.745 1.607 2.64 2.434 4.318 1.873 1.818-.609 2.734-2.216 2.408-4.213-.404-2.466.42-4.213 2.641-5.493.342-.187.59-.358.466-.764-.124-.421-.497-.421-.839-.39-1.04.125-1.77.733-2.361 1.56-.637.858-.855 1.872-1.243 2.98Zm-2.252.593c1.289-.031 2.314.92 2.376 2.2.063 1.295-.87 2.34-2.143 2.419-1.367.078-2.455-.92-2.47-2.278a2.303 2.303 0 0 1 2.236-2.34Z" fill="#1E2B38"/><path d="M17.275 33.874c0 .172-.03.25 0 .281 6.851 7.74 14.79 13.81 24.934 16.524.652.172 1.367.187 2.05.203 1.896 0 2.47-.843 1.787-2.637-.73-1.904-2.004-3.48-3.433-4.9-5.468-5.46-11.807-9.19-19.636-9.97-1.942-.187-3.837 0-5.702.5Z" fill="#FAFAFA"/><path d="M34.565 62.537c3.356-.202 5.546 1.732 7.582 3.98.823.92 3.821.42 4.334-.734.14-.312-.031-.546-.202-.765-1.678-2.06-3.465-4.01-5.966-5.055-2.687-1.123-4.458-.312-5.748 2.574Z" fill="#F3AC3F"/><path d="M32.794 66.594c1.958-.312 3.542.234 4.521 1.7.901 1.327 1.6 1.296 2.983.672 1.646-.734 1.46-1.28.373-2.278-1.057-.983-2.082-1.982-3.434-2.528-2.33-.983-3.775-.218-4.443 2.434Z" fill="#F2F3F3"/><path d="M31.38 74.365c1.787-1.67 3.48-2.731 5.267-3.636.342-.172.683-.312.42-.905-.576-1.28-2.486-2.34-3.853-2.06-.56.11-.98.36-1.057.952-.264 1.748-.481 3.48-.777 5.649Z" fill="#F3AC3F"/><path d="M55.29 37.26c-1.275.032-2.253 1.061-2.238 2.34.016 1.358 1.119 2.357 2.47 2.279 1.29-.078 2.206-1.124 2.144-2.419-.047-1.28-1.087-2.23-2.377-2.2Z" fill="#FAFAFA"/></g><defs><clipPath id="a"><path fill="#fff" transform="translate(78 26)" d="M0 0h162v26H0z"/></clipPath><clipPath id="b"><path fill="#fff" transform="matrix(-1 0 0 1 62 0)" d="M0 0h62v78H0z"/></clipPath></defs></svg>